# xmcd CD database file
#
# Track frame offsets:
#	150
#	30897
#	52930
#	88025
#	125212
#	150797
#	184252
#
# Disc length: 2961 seconds
#
# Revision: 0
# Processed by: cddbd v1.4PL0 Copyright (c) Steve Scherf et al.
# Submitted via: CDex 1.50beta8
#
DISCID=4a0b8f07
DTITLE=Harry Pepl - NYC Impressure
DYEAR=1992
DGENRE=Jazz
TTITLE0=Little Mom
TTITLE1=Children at Play
TTITLE2=Scale Fox
TTITLE3=Song for Gil
TTITLE4=La la la
TTITLE5=Ankara
TTITLE6=Dinozzo
EXTD=YEAR: 1992
EXTT0=
EXTT1=
EXTT2=
EXTT3=
EXTT4=
EXTT5=
EXTT6=
PLAYORDER=
